<svg width="16" height="16" viewBox="0 0 16 16" fill="none" xmlns="http://www.w3.org/2000/svg">
<path d="M0.292649 0.292181C0.480177 0.10471 0.734485 -0.000605544 0.999649 -0.000605544C1.26481 -0.000605544 1.51912 0.10471 1.70665 0.292181L7.99965 6.58518L14.2926 0.292181C14.3849 0.196671 14.4952 0.120489 14.6172 0.0680795C14.7392 0.0156705 14.8705 -0.0119157 15.0032 -0.0130695C15.136 -0.0142234 15.2677 0.0110784 15.3906 0.0613592C15.5135 0.11164 15.6252 0.185893 15.719 0.279786C15.8129 0.373679 15.8872 0.485331 15.9375 0.608227C15.9878 0.731123 16.0131 0.862803 16.0119 0.995582C16.0107 1.12836 15.9832 1.25958 15.9308 1.38159C15.8783 1.50359 15.8022 1.61393 15.7066 1.70618L9.41365 7.99918L15.7066 14.2922C15.8888 14.4808 15.9896 14.7334 15.9873 14.9956C15.985 15.2578 15.8799 15.5086 15.6945 15.694C15.5091 15.8794 15.2582 15.9846 14.996 15.9869C14.7339 15.9891 14.4813 15.8883 14.2926 15.7062L7.99965 9.41318L1.70665 15.7062C1.51805 15.8883 1.26544 15.9891 1.00325 15.9869C0.741051 15.9846 0.490239 15.8794 0.304831 15.694C0.119422 15.5086 0.0142535 15.2578 0.0119751 14.9956C0.00969666 14.7334 0.110491 14.4808 0.292649 14.2922L6.58565 7.99918L0.292649 1.70618C0.105178 1.51865 -0.000137329 1.26435 -0.000137329 0.999181C-0.000137329 0.734017 0.105178 0.479709 0.292649 0.292181Z" fill="black"/>
</svg>
