<svg width="34" height="34" viewBox="0 0 34 34" fill="none" xmlns="http://www.w3.org/2000/svg">
<path fill-rule="evenodd" clip-rule="evenodd" d="M29.0841 6.4175C29.2718 6.21608 29.374 5.94968 29.3691 5.67443C29.3643 5.39917 29.2528 5.13654 29.0581 4.94187C28.8634 4.7472 28.6008 4.63569 28.3255 4.63083C28.0503 4.62598 27.7839 4.72815 27.5825 4.91583L4.91581 27.5825C4.81142 27.6798 4.72769 27.7971 4.66962 27.9274C4.61155 28.0577 4.58032 28.1984 4.5778 28.3411C4.57528 28.4838 4.60153 28.6255 4.65497 28.7578C4.7084 28.8901 4.78794 29.0102 4.88884 29.1111C4.98973 29.212 5.10991 29.2916 5.24221 29.345C5.37451 29.3984 5.51622 29.4247 5.65888 29.4222C5.80154 29.4197 5.94224 29.3884 6.07257 29.3304C6.2029 29.2723 6.3202 29.1886 6.41747 29.0842L10.7171 24.7846C12.5842 25.6459 14.722 26.2083 17 26.2083C20.7088 26.2083 24.0436 24.7194 26.4463 22.8749C27.6505 21.9512 28.6379 20.9256 29.3292 19.9282C30.0092 18.9479 30.4583 17.9194 30.4583 17C30.4583 16.0806 30.0092 15.0521 29.3292 14.0732C28.6379 13.0744 27.6505 12.0487 26.4463 11.1265C26.0638 10.8318 25.6558 10.5457 25.228 10.2751L29.0841 6.4175ZM21.4341 14.0703L19.8758 15.6258C20.1599 16.2206 20.2526 16.8889 20.1411 17.5385C20.0296 18.1882 19.7195 18.7873 19.2534 19.2534C18.7873 19.7195 18.1882 20.0297 17.5385 20.1411C16.8889 20.2526 16.2206 20.1599 15.6258 19.8758L14.0675 21.4342C15.0891 22.1106 16.3131 22.4131 17.5322 22.2904C18.7512 22.1678 19.8905 21.6275 20.7568 20.7611C21.6232 19.8947 22.1635 18.7555 22.2861 17.5364C22.4088 16.3174 22.1063 15.0934 21.4299 14.0717" fill="#5F7C8D"/>
<path d="M17.9491 11.7725C18.0074 11.7834 18.0675 11.7801 18.1242 11.7628C18.1809 11.7456 18.2326 11.7149 18.275 11.6733L21.0375 8.91083C21.0804 8.8686 21.1115 8.81583 21.1277 8.75781C21.1439 8.69978 21.1445 8.63853 21.1296 8.58017C21.1147 8.52182 21.0847 8.46839 21.0427 8.42524C21.0007 8.38208 20.9481 8.35071 20.8901 8.33425C19.6241 7.97742 18.3153 7.79487 17 7.79167C13.2911 7.79167 9.95629 9.28058 7.55363 11.1251C6.34946 12.0488 5.36204 13.0744 4.66929 14.0718C3.98929 15.0521 3.54163 16.0806 3.54163 17C3.54163 17.9194 3.99071 18.9479 4.66929 19.9268C5.34343 20.873 6.13991 21.7257 7.03796 22.4627C7.10516 22.5182 7.19074 22.5466 7.27781 22.5421C7.36488 22.5376 7.44712 22.5007 7.50829 22.4386L11.6733 18.2736C11.7148 18.2313 11.7455 18.1795 11.7628 18.1228C11.7801 18.0661 11.7834 18.006 11.7725 17.9478C11.6189 17.1029 11.6725 16.2334 11.9286 15.4137C12.1847 14.5941 12.6357 13.8487 13.2429 13.2415C13.8501 12.6343 14.5954 12.1833 15.4151 11.9272C16.2347 11.6711 17.1042 11.6176 17.9491 11.7711" fill="#5F7C8D"/>
</svg>
