<svg width="18" height="18" viewBox="0 0 18 18" fill="none" xmlns="http://www.w3.org/2000/svg">
<mask id="path-1-inside-1_1_103" fill="white">
<path fill-rule="evenodd" clip-rule="evenodd" d="M7.20001 3.6C5.70884 3.6 4.50001 4.80883 4.50001 6.3V9.9C4.50001 12.3853 6.51473 14.4 9.00001 14.4C11.4853 14.4 13.5 12.3853 13.5 9.9V6.3C13.5 5.80294 13.903 5.4 14.4 5.4C14.8971 5.4 15.3 5.80294 15.3 6.3V9.9C15.3 13.3794 12.4794 16.2 9.00001 16.2C5.52062 16.2 2.70001 13.3794 2.70001 9.9V6.3C2.70001 3.81472 4.71473 1.8 7.20001 1.8C9.68529 1.8 11.7 3.81472 11.7 6.3V9.9C11.7 11.3912 10.4912 12.6 9.00001 12.6C7.50884 12.6 6.30001 11.3912 6.30001 9.9V6.3C6.30001 5.80294 6.70296 5.4 7.20001 5.4C7.69707 5.4 8.10001 5.80294 8.10001 6.3V9.9C8.10001 10.3971 8.50296 10.8 9.00001 10.8C9.49707 10.8 9.90001 10.3971 9.90001 9.9V6.3C9.90001 4.80883 8.69118 3.6 7.20001 3.6Z"/>
</mask>
<path fill-rule="evenodd" clip-rule="evenodd" d="M7.20001 3.6C5.70884 3.6 4.50001 4.80883 4.50001 6.3V9.9C4.50001 12.3853 6.51473 14.4 9.00001 14.4C11.4853 14.4 13.5 12.3853 13.5 9.9V6.3C13.5 5.80294 13.903 5.4 14.4 5.4C14.8971 5.4 15.3 5.80294 15.3 6.3V9.9C15.3 13.3794 12.4794 16.2 9.00001 16.2C5.52062 16.2 2.70001 13.3794 2.70001 9.9V6.3C2.70001 3.81472 4.71473 1.8 7.20001 1.8C9.68529 1.8 11.7 3.81472 11.7 6.3V9.9C11.7 11.3912 10.4912 12.6 9.00001 12.6C7.50884 12.6 6.30001 11.3912 6.30001 9.9V6.3C6.30001 5.80294 6.70296 5.4 7.20001 5.4C7.69707 5.4 8.10001 5.80294 8.10001 6.3V9.9C8.10001 10.3971 8.50296 10.8 9.00001 10.8C9.49707 10.8 9.90001 10.3971 9.90001 9.9V6.3C9.90001 4.80883 8.69118 3.6 7.20001 3.6Z" fill="#1D2939"/>
<path d="M7.20001 3.6V1.6C4.60427 1.6 2.50001 3.70426 2.50001 6.3H4.50001H6.50001C6.50001 5.9134 6.81341 5.6 7.20001 5.6V3.6ZM4.50001 6.3H2.50001V9.9H4.50001H6.50001V6.3H4.50001ZM4.50001 9.9H2.50001C2.50001 13.4898 5.41016 16.4 9.00001 16.4V14.4V12.4C7.6193 12.4 6.50001 11.2807 6.50001 9.9H4.50001ZM9.00001 14.4V16.4C12.5899 16.4 15.5 13.4898 15.5 9.9H13.5H11.5C11.5 11.2807 10.3807 12.4 9.00001 12.4V14.4ZM13.5 9.9H15.5V6.3H13.5H11.5V9.9H13.5ZM13.5 6.3H15.5C15.5 6.90751 15.0075 7.4 14.4 7.4V5.4V3.4C12.7984 3.4 11.5 4.69837 11.5 6.3H13.5ZM14.4 5.4V7.4C13.7925 7.4 13.3 6.90751 13.3 6.3H15.3H17.3C17.3 4.69837 16.0016 3.4 14.4 3.4V5.4ZM15.3 6.3H13.3V9.9H15.3H17.3V6.3H15.3ZM15.3 9.9H13.3C13.3 12.2748 11.3748 14.2 9.00001 14.2V16.2V18.2C13.584 18.2 17.3 14.484 17.3 9.9H15.3ZM9.00001 16.2V14.2C6.62519 14.2 4.70001 12.2748 4.70001 9.9H2.70001H0.700012C0.700012 14.484 4.41605 18.2 9.00001 18.2V16.2ZM2.70001 9.9H4.70001V6.3H2.70001H0.700012V9.9H2.70001ZM2.70001 6.3H4.70001C4.70001 4.91929 5.8193 3.8 7.20001 3.8V1.8V-0.200001C3.61016 -0.200001 0.700012 2.71015 0.700012 6.3H2.70001ZM7.20001 1.8V3.8C8.58072 3.8 9.70001 4.91929 9.70001 6.3H11.7H13.7C13.7 2.71015 10.7899 -0.200001 7.20001 -0.200001V1.8ZM11.7 6.3H9.70001V9.9H11.7H13.7V6.3H11.7ZM11.7 9.9H9.70001C9.70001 10.2866 9.38661 10.6 9.00001 10.6V12.6V14.6C11.5958 14.6 13.7 12.4957 13.7 9.9H11.7ZM9.00001 12.6V10.6C8.61341 10.6 8.30001 10.2866 8.30001 9.9H6.30001H4.30001C4.30001 12.4957 6.40427 14.6 9.00001 14.6V12.6ZM6.30001 9.9H8.30001V6.3H6.30001H4.30001V9.9H6.30001ZM6.30001 6.3H8.30001C8.30001 6.90751 7.80753 7.4 7.20001 7.4V5.4V3.4C5.59839 3.4 4.30001 4.69837 4.30001 6.3H6.30001ZM7.20001 5.4V7.4C6.5925 7.4 6.10001 6.90751 6.10001 6.3H8.10001H10.1C10.1 4.69837 8.80164 3.4 7.20001 3.4V5.4ZM8.10001 6.3H6.10001V9.9H8.10001H10.1V6.3H8.10001ZM8.10001 9.9H6.10001C6.10001 11.5016 7.39839 12.8 9.00001 12.8V10.8V8.8C9.60753 8.8 10.1 9.29249 10.1 9.9H8.10001ZM9.00001 10.8V12.8C10.6016 12.8 11.9 11.5016 11.9 9.9H9.90001H7.90001C7.90001 9.29249 8.3925 8.8 9.00001 8.8V10.8ZM9.90001 9.9H11.9V6.3H9.90001H7.90001V9.9H9.90001ZM9.90001 6.3H11.9C11.9 3.70426 9.79575 1.6 7.20001 1.6V3.6V5.6C7.58661 5.6 7.90001 5.9134 7.90001 6.3H9.90001Z" fill="#ACACAC" mask="url(#path-1-inside-1_1_103)"/>
</svg>
